<!DOCTYPE svg PUBLIC "-//W3C//DTD SVG 20010904//EN" "http://www.w3.org/TR/2001/REC-SVG-20010904/DTD/svg10.dtd">
<svg version="1.0" xmlns="http://www.w3.org/2000/svg" width="199px" height="170px" viewBox="0 0 1990 1700" preserveAspectRatio="xMidYMid meet">
<g id="layer101" fill="#b42726" stroke="none">
 <path d="M0 850 l0 -850 995 0 995 0 0 850 0 850 -995 0 -995 0 0 -850z"/>
 </g>
<g id="layer102" fill="#c04847" stroke="none">
 <path d="M0 850 l0 -850 995 0 995 0 0 850 0 850 -995 0 -995 0 0 -850z m167 418 c-3 -8 -6 -5 -6 6 -1 11 2 17 5 13 3 -3 4 -12 1 -19z m873 -123 c0 -20 -5 -25 -25 -25 -37 0 -103 -29 -161 -69 -48 -33 -318 -276 -372 -334 l-23 -24 231 -213 c126 -118 230 -215 230 -217 0 -2 -19 -3 -42 -3 -42 0 -49 6 -276 215 -127 119 -232 219 -232 224 0 9 335 324 397 372 78 63 162 97 241 98 28 1 32 -2 32 -24z m-702 -437 l2 -448 -40 0 -40 0 0 451 0 450 38 -3 37 -3 3 -447z m1507 422 l0 -25 -252 -3 -253 -2 0 -420 0 -420 -40 0 -40 0 0 443 c0 244 3 447 7 450 4 4 135 6 292 5 l286 -3 0 -25z"/>
 </g>
<g id="layer103" fill="#dfa4a3" stroke="none">
 <path d="M0 850 l0 -850 995 0 995 0 0 605 0 605 -754 0 c-493 0 -757 3 -761 10 -4 7 250 10 754 10 l761 0 0 235 0 235 -995 0 -995 0 0 -850z m873 428 l702 -3 -695 -2 c-382 -2 -697 -6 -701 -11 -4 -4 -10 -205 -14 -447 -4 -242 -9 -442 -12 -445 -3 -3 -3 198 -2 445 l4 450 -55 6 -55 5 55 5 c52 4 55 6 60 34 l4 30 4 -32 3 -33 702 -2z m167 -133 c0 -20 -5 -25 -25 -25 -37 0 -103 -29 -161 -69 -48 -33 -318 -276 -372 -334 l-23 -24 231 -213 c126 -118 230 -215 230 -217 0 -2 -19 -3 -42 -3 -42 0 -49 6 -276 215 -127 119 -232 219 -232 224 0 9 335 324 397 372 78 63 162 97 241 98 28 1 32 -2 32 -24z m-702 -437 l2 -448 -40 0 -40 0 0 451 0 450 38 -3 37 -3 3 -447z m1507 422 l0 -25 -252 -3 -253 -2 0 -420 0 -420 -40 0 -40 0 0 443 c0 244 3 447 7 450 4 4 135 6 292 5 l286 -3 0 -25z m-1642 -610 c-4 -234 -9 -369 -11 -300 -4 147 11 885 16 790 2 -36 0 -256 -5 -490z"/>
 </g>
<g id="layer104" fill="#fefefe" stroke="none">
 <path d="M0 850 l0 -850 995 0 995 0 0 605 0 605 -765 0 c-503 0 -765 3 -765 10 0 7 262 10 765 10 l765 0 0 235 0 235 -995 0 -995 0 0 -850z m180 465 l0 -25 700 0 c616 0 700 -2 700 -15 0 -13 -84 -15 -698 -15 l-699 0 -6 -212 c-4 -116 -7 -318 -7 -450 0 -212 -2 -238 -16 -238 -15 0 -15 41 -9 450 l8 450 -57 0 c-43 0 -56 3 -56 15 0 12 13 15 55 15 52 0 55 1 55 25 0 16 6 25 15 25 9 0 15 -9 15 -25z m860 -170 c0 -20 -5 -25 -25 -25 -37 0 -103 -29 -161 -69 -48 -33 -318 -276 -372 -334 l-23 -24 231 -213 c126 -118 230 -215 230 -217 0 -2 -19 -3 -42 -3 -42 0 -49 6 -276 215 -127 119 -232 219 -232 224 0 9 335 324 397 372 78 63 162 97 241 98 28 1 32 -2 32 -24z m-702 -437 l2 -448 -40 0 -40 0 0 451 0 450 38 -3 37 -3 3 -447z m1507 422 l0 -25 -252 -3 -253 -2 0 -420 0 -420 -40 0 -40 0 0 443 c0 244 3 447 7 450 4 4 135 6 292 5 l286 -3 0 -25z m-1635 -539 c0 -458 -3 -521 -26 -499 -8 9 9 988 18 988 4 0 8 -220 8 -489z"/>
 </g>

</svg>